<svg height="512pt" viewBox="0 0 512 512" width="512pt" xmlns="http://www.w3.org/2000/svg"><path d="m256 125.96875c-71.699219 0-130.03125 58.332031-130.03125 130.03125s58.332031 130.03125 130.03125 130.03125 130.03125-58.332031 130.03125-130.03125-58.332031-130.03125-130.03125-130.03125zm0 245.0625c-63.429688 0-115.03125-51.601562-115.03125-115.03125s51.601562-115.03125 115.03125-115.03125 115.03125 51.601562 115.03125 115.03125-51.601562 115.03125-115.03125 115.03125zm0 0"/><path d="m256 152.101562c-57.289062 0-103.898438 46.609376-103.898438 103.898438s46.609376 103.898438 103.898438 103.898438 103.898438-46.609376 103.898438-103.898438-46.609376-103.898438-103.898438-103.898438zm0 192.796876c-49.019531 0-88.898438-39.878907-88.898438-88.898438s39.878907-88.898438 88.898438-88.898438 88.898438 39.878907 88.898438 88.898438-39.878907 88.898438-88.898438 88.898438zm0 0"/><path d="m201.210938 201.207031c-16.640626 16.636719-24.738282 39.644531-22.21875 63.121094l14.914062-1.601563c-2.03125-18.941406 4.496094-37.5 17.90625-50.910156zm0 0"/><path d="m278.050781 206.988281v-12.226562h-15v12.226562h-12.753906v-12.226562h-15v12.226562h-18.566406v15h11.160156v68.023438h-11.160156v15h18.566406v12.226562h15v-12.226562h12.753906v12.226562h15v-12.226562h4.167969l12.472656-12.476563v-31.5625l-4.972656-4.972656 4.972656-4.972656v-31.5625l-12.472656-12.476563zm1.640625 79.335938-3.683594 3.6875h-33.117187v-26.511719h33.117187l3.683594 3.6875zm0-41.511719-3.683594 3.6875h-33.117187v-26.511719h33.117187l3.683594 3.6875zm0 0"/><path d="m83.480469 166.964844c46.035156 0 83.484375-37.449219 83.484375-83.480469 0-46.035156-37.449219-83.484375-83.484375-83.484375-46.03125 0-83.480469 37.449219-83.480469 83.480469 0 46.035156 37.449219 83.484375 83.480469 83.484375zm0-151.964844c37.761719 0 68.484375 30.722656 68.484375 68.480469 0 37.761719-30.722656 68.484375-68.484375 68.484375-37.757813 0-68.480469-30.722656-68.480469-68.484375 0-37.757813 30.722656-68.480469 68.480469-68.480469zm0 0"/><path d="m49.8125 49.8125-10.605469-10.605469c-13.441406 13.445313-19.988281 32.035157-17.953125 51.003907l14.914063-1.601563c-1.546875-14.433594 3.425781-28.574219 13.644531-38.796875zm0 0"/><path d="m65.582031 123.671875v8.035156h15v-8.035156h6.859375v8.035156h15v-8.035156h2.347656l10.757813-10.757813v-26.175781l-3.257813-3.257812 3.257813-3.253907v-26.175781l-10.757813-10.757812h-2.347656v-8.035157h-15v8.035157h-6.859375v-8.035157h-15v8.035157h-13.023437v15h7.195312v50.378906h-7.195312v15zm9.171875-32.691406h23.824219l1.96875 1.96875v13.753906l-1.96875 1.96875h-23.824219zm25.792969-30.71875v13.753906l-1.96875 1.96875h-23.824219v-17.691406h23.824219zm0 0"/><path d="m428.519531 177.070312c46.03125 0 83.480469-37.449218 83.480469-83.480468 0-46.035156-37.449219-83.484375-83.480469-83.484375-46.035156 0-83.484375 37.449219-83.484375 83.484375 0 46.03125 37.449219 83.480468 83.484375 83.480468zm0-151.964843c37.761719 0 68.480469 30.71875 68.480469 68.480469 0 37.761718-30.722656 68.480468-68.480469 68.480468-37.761719 0-68.484375-30.71875-68.484375-68.480468 0-37.761719 30.722656-68.480469 68.484375-68.480469zm0 0"/><path d="m394.851562 59.917969-10.609374-10.605469c-13.441407 13.445312-19.984376 32.035156-17.953126 51.003906l14.914063-1.601562c-1.546875-14.433594 3.425781-28.574219 13.648437-38.796875zm0 0"/><path d="m410.617188 133.777344v8.035156h15v-8.035156h6.859374v8.035156h15v-8.035156h2.347657l10.757812-10.757813v-26.175781l-3.257812-3.253906 3.257812-3.257813v-26.179687l-10.757812-10.753906h-2.347657v-8.035157h-15v8.035157h-6.859374v-8.035157h-15v8.035157h-13.023438v15h7.195312v50.378906h-7.195312v15zm9.171874-32.6875h23.824219l1.96875 1.964844v13.753906l-1.96875 1.96875h-23.824219zm25.792969-30.722656v13.75l-1.96875 1.972656h-23.824219v-17.691406h23.824219zm0 0"/><path d="m453.984375 349.355469c-31.988281 0-58.015625 26.027343-58.015625 58.015625 0 31.988281 26.027344 58.015625 58.015625 58.015625 31.992187 0 58.015625-26.027344 58.015625-58.015625 0-31.988282-26.023438-58.015625-58.015625-58.015625zm0 101.03125c-23.71875 0-43.015625-19.296875-43.015625-43.015625s19.296875-43.015625 43.015625-43.015625 43.015625 19.296875 43.015625 43.015625-19.296875 43.015625-43.015625 43.015625zm0 0"/><path d="m434.648438 407.371094h-15c0 18.933594 15.402343 34.335937 34.335937 34.335937v-15c-10.660156 0-19.335937-8.675781-19.335937-19.335937zm0 0"/><path d="m58.015625 368.871094c-31.992187 0-58.015625 26.027344-58.015625 58.015625 0 31.992187 26.023438 58.015625 58.015625 58.015625 31.988281 0 58.015625-26.023438 58.015625-58.015625 0-31.988281-26.027344-58.015625-58.015625-58.015625zm0 101.03125c-23.71875 0-43.015625-19.296875-43.015625-43.015625 0-23.714844 19.296875-43.015625 43.015625-43.015625s43.015625 19.296875 43.015625 43.015625-19.296875 43.015625-43.015625 43.015625zm0 0"/><path d="m38.679688 426.886719h-15c0 18.933593 15.402343 34.335937 34.335937 34.335937v-15c-10.660156 0-19.335937-8.671875-19.335937-19.335937zm0 0"/><path d="m26.855469 297.660156c0 20.542969 16.710937 37.25 37.25 37.25 20.539062 0 37.25-16.707031 37.25-37.25 0-20.539062-16.710938-37.25-37.25-37.25-20.539063 0-37.25 16.710938-37.25 37.25zm59.5 0c0 12.269532-9.980469 22.25-22.25 22.25s-22.25-9.980468-22.25-22.25c0-12.265625 9.980469-22.25 22.25-22.25s22.25 9.984375 22.25 22.25zm0 0"/><path d="m105.679688 272.660156h14.839843v15h-14.839843zm0 0"/><path d="m105.679688 307.660156h25.65625v15h-25.65625zm0 0"/><path d="m127.476562 186.902344h-18.996093v-9.039063h-15v24.039063h33.996093zm0 0"/><path d="m115.957031 221.902344h-42.476562v-44.039063h-15v59.039063h57.476562zm0 0"/><path d="m478.984375 339.054688v-102.96875h-80.988281v15h65.988281v87.96875zm0 0"/><path d="m443.984375 339.054688v-67.96875h-47.242187v15h32.242187v52.96875zm0 0"/><path d="m126.332031 416.886719h80.398438v-30.152344h-15v15.152344h-65.398438zm0 0"/><path d="m226.730469 436.886719h-100.398438v15h115.398438v-55.015625h-15zm0 0"/><path d="m332.648438 370.976562h15v57.203126h-15zm0 0"/><path d="m297.648438 389.796875h15v38.382813h-15zm0 0"/><path d="m260.550781 83.589844h73.585938v-15h-88.585938v44.910156h15zm0 0"/><path d="m280.550781 103.589844h53.585938v15h-53.585938zm0 0"/><path d="m322.648438 437.5c-20.539063 0-37.25 16.710938-37.25 37.25s16.710937 37.25 37.25 37.25c20.539062 0 37.25-16.710938 37.25-37.25s-16.710938-37.25-37.25-37.25zm0 59.5c-12.269532 0-22.25-9.980469-22.25-22.25s9.980468-22.25 22.25-22.25c12.269531 0 22.25 9.980469 22.25 22.25s-9.980469 22.25-22.25 22.25zm0 0"/><path d="m310.792969 310.789062-10.609375-10.601562c11.78125-11.785156 18.269531-27.476562 18.269531-44.1875 0-1.476562-.050781-2.96875-.152344-4.429688l14.960938-1.054687c.128906 1.8125.191406 3.65625.191406 5.484375 0 20.71875-8.046875 40.175781-22.660156 54.789062zm6.25-68.058593c-.941407-4.367188-2.355469-8.636719-4.195313-12.6875l13.648438-6.214844c2.289062 5.027344 4.042968 10.324219 5.210937 15.742187zm-8.464844-20.507813c-2.398437-3.738281-5.222656-7.238281-8.394531-10.40625l10.605468-10.605468c3.929688 3.925781 7.429688 8.265624 10.40625 12.898437zm0 0"/><path d="m127.757812 127.757812-10.605468-10.605468c7.582031-7.585938 12.273437-17.222656 13.566406-27.871094l14.890625 1.808594c-1.699219 14.007812-7.875 26.6875-17.851563 36.667968zm3.226563-47.113281c-.253906-4.328125-1.09375-8.597656-2.492187-12.683593l14.1875-4.859376c1.839843 5.367188 2.941406 10.972657 3.28125 16.660157zm-6.015625-20.546875c-2.117188-3.75-4.746094-7.210937-7.816406-10.28125l10.605468-10.609375c4.039063 4.039063 7.496094 8.589844 10.277344 13.53125zm0 0"/><path d="m472.792969 137.859375-10.605469-10.601563c7.582031-7.585937 12.273438-17.226562 13.566406-27.875l14.890625 1.808594c-1.699219 14.011719-7.875 26.691406-17.851562 36.667969zm3.226562-47.105469c-.253906-4.335937-1.09375-8.605468-2.492187-12.6875l14.1875-4.863281c1.839844 5.367187 2.941406 10.972656 3.28125 16.660156zm-6.015625-20.550781c-2.117187-3.753906-4.746094-7.210937-7.816406-10.285156l10.605469-10.605469c4.035156 4.035156 7.492187 8.589844 10.277343 13.527344zm0 0"/><path d="m478.390625 431.777344-10.605469-10.605469c3.6875-3.6875 5.714844-8.585937 5.714844-13.800781 0-3.3125-.839844-6.582032-2.433594-9.457032l13.117188-7.269531c2.824218 5.09375 4.316406 10.878907 4.316406 16.726563 0 9.222656-3.589844 17.890625-10.109375 24.40625zm-38.203125-38.207032-10.609375-10.605468c4.5625-4.558594 10.277344-7.742188 16.535156-9.203125l3.410157 14.605469c-3.527344.824218-6.757813 2.625-9.335938 5.203124zm26.289062-1.195312c-2.785156-2.328125-6.164062-3.824219-9.765624-4.328125l2.078124-14.855469c6.382813.894532 12.367188 3.546875 17.304688 7.675782zm0 0"/><path d="m82.421875 451.292969-10.605469-10.605469c3.683594-3.683594 5.714844-8.585938 5.714844-13.796875 0-3.316406-.84375-6.582031-2.4375-9.457031l13.121094-7.273438c2.820312 5.09375 4.3125 10.878906 4.3125 16.730469 0 9.21875-3.589844 17.886719-10.105469 24.402344zm-38.207031-38.203125-10.605469-10.605469c4.5625-4.5625 10.277344-7.742187 16.53125-9.207031l3.414063 14.609375c-3.53125.824219-6.757813 2.625-9.339844 5.203125zm26.289062-1.199219c-2.785156-2.328125-6.160156-3.824219-9.765625-4.328125l2.082031-14.855469c6.378907.894531 12.363282 3.546875 17.304688 7.675781zm0 0"/></svg>